<?xml version="1.0" standalone="no"?>
<!DOCTYPE svg PUBLIC "-//W3C//DTD SVG 20010904//EN"
 "http://www.w3.org/TR/2001/REC-SVG-20010904/DTD/svg10.dtd">
<svg version="1.0" xmlns="http://www.w3.org/2000/svg"
 width="321.000000pt" height="164.000000pt" viewBox="0 0 321.000000 164.000000"
 preserveAspectRatio="xMidYMid meet">
<metadata>
Created by potrace 1.16, written by Peter Selinger 2001-2019
</metadata>
<g transform="translate(0.000000,164.000000) scale(0.100000,-0.100000)"
fill="#000000" stroke="none">
<path d="M2220 1581 c0 -5 7 -14 15 -21 16 -14 18 -10 9 14 -6 17 -24 22 -24
7z"/>
<path d="M2542 1570 c-7 -11 -9 -20 -4 -20 10 0 32 22 32 32 0 15 -15 8 -28
-12z"/>
<path d="M2332 1544 c-57 -40 -69 -141 -27 -224 14 -27 25 -61 25 -75 0 -24 2
-25 65 -25 63 0 65 1 65 25 0 14 12 49 26 77 22 44 25 61 22 116 -4 58 -8 68
-36 93 -37 34 -102 40 -140 13z m125 -19 c28 -19 47 -87 38 -132 -3 -19 -17
-55 -31 -80 -13 -25 -24 -52 -24 -59 0 -10 -14 -14 -45 -14 -31 0 -45 4 -45
14 0 7 -11 34 -24 59 -33 61 -40 105 -27 155 14 50 43 72 96 72 22 0 50 -7 62
-15z"/>
<path d="M2231 1216 c-7 -8 -8 -17 -3 -19 4 -3 13 3 20 14 14 22 0 26 -17 5z"/>
<path d="M2542 1210 c13 -20 28 -27 28 -12 0 10 -22 32 -32 32 -5 0 -3 -9 4
-20z"/>
<path d="M2357 1143 c18 -2 50 -2 70 0 21 2 7 4 -32 4 -38 0 -55 -2 -38 -4z"/>
<path d="M2373 1063 c15 -2 37 -2 50 0 12 2 0 4 -28 4 -27 0 -38 -2 -22 -4z"/>
<path d="M2344 870 c-28 -11 -54 -48 -54 -78 0 -32 52 -82 85 -82 88 0 129 90
64 144 -31 27 -58 31 -95 16z"/>
<path d="M50 480 l0 -350 90 0 90 0 2 208 3 207 27 -70 c14 -38 50 -130 78
-203 l52 -133 56 3 57 3 75 192 c41 106 78 193 83 193 4 0 7 -90 7 -200 l0
-200 90 0 90 0 0 350 0 351 -117 -3 -118 -3 -76 -184 c-42 -102 -81 -191 -86
-200 -7 -11 -28 32 -82 164 -40 98 -78 189 -84 202 -10 22 -15 23 -124 23
l-113 0 0 -350z"/>
<path d="M1500 828 c0 -2 52 -158 114 -348 l114 -345 129 -3 129 -3 112 343
c62 189 112 347 112 351 0 4 -46 6 -102 5 l-103 -3 -67 -228 c-74 -253 -76
-262 -83 -255 -3 3 -28 83 -56 179 -28 96 -59 204 -70 242 l-20 67 -104 0
c-58 0 -105 -1 -105 -2z"/>
<path d="M2970 480 l0 -350 95 0 95 0 0 350 0 350 -95 0 -95 0 0 -350z"/>
<path d="M2610 715 l0 -65 -35 0 -35 0 0 -65 0 -65 35 0 35 0 0 -147 c0 -129
3 -152 20 -180 22 -37 58 -58 115 -67 36 -6 129 5 140 16 3 2 -1 32 -7 66 -10
53 -14 61 -29 57 -10 -4 -27 -1 -39 5 -18 10 -20 20 -20 130 l0 120 45 0 45 0
0 65 0 65 -45 0 -45 0 0 65 0 65 -90 0 -90 0 0 -65z"/>
<path d="M995 376 c90 -264 93 -275 75 -291 -13 -12 -27 -15 -53 -10 -31 6
-35 4 -41 -18 -3 -14 -9 -32 -12 -41 -5 -14 10 -16 130 -16 l136 0 20 32 c17
28 210 589 210 611 0 4 -42 7 -94 7 -89 0 -94 -1 -99 -22 -58 -253 -81 -339
-87 -327 -4 8 -25 89 -46 182 l-38 167 -98 0 -97 0 94 -274z"/>
<path d="M2290 390 l0 -260 90 0 90 0 0 260 0 260 -90 0 -90 0 0 -260z"/>
</g>
</svg>
